<?xml version="1.0" encoding="utf-8"?>
<!-- Svg Vector Icons : http://www.onlinewebfonts.com/icon -->
<!DOCTYPE svg PUBLIC "-//W3C//DTD SVG 1.1//EN" "http://www.w3.org/Graphics/SVG/1.1/DTD/svg11.dtd">
<svg version="1.1" xmlns="http://www.w3.org/2000/svg" xmlns:xlink="http://www.w3.org/1999/xlink" x="0px" y="0px" viewBox="0 0 256 256" enable-background="new 0 0 256 256" xml:space="preserve">
<metadata> Svg Vector Icons : http://www.onlinewebfonts.com/icon </metadata>
<g><g><g><path fill="#000000" d="M119.5,10.6C94.6,14,73.4,30.3,64.3,53.1c-3.4,8.5-4.6,14.8-5.3,28c-1.2,20.2-9.2,47.2-16.8,56.5c-3.5,4.4-3.3,7,1,10.1c7.6,5.6,22.4,10.2,43.3,13.4l7,1.1l3.4,2.7c4.6,3.7,9.5,6.7,13.7,8.3c16.7,6.7,33.3,3.9,48.3-8.2l3.6-2.9l7-1.1c21.9-3.5,38.8-8.9,44.6-14.5c3-2.9,2.9-5-0.1-8.6c-3.9-4.7-9.7-18.7-12.8-31c-2.7-10.7-3.8-17.9-4.6-31c-0.5-8.3-1.3-12.5-3.5-19.1c-3.4-10.3-8.8-18.9-16.8-26.9c-9.9-9.9-21.1-16-34.8-18.9C136.2,10.3,124.6,9.9,119.5,10.6z M118.1,68.8c4.5,3.6,15.1,10.7,20.9,13.8c14.9,8.2,31.4,13.4,45.9,14.6c1.2,0.1,1.4,0.4,1.8,1.7c1.1,4.1-0.7,14.8-2.9,17.6c-0.9,1.2-1.1,1.2-3.6,1c-2.5-0.3-2.8-0.2-4.1,1c-1.1,1-1.7,2.3-2.6,5.7c-4.6,16.6-15.1,31.3-27.2,38c-10,5.6-21.7,6.4-32.1,2c-13.4-5.6-24.9-19.7-30.5-37.3c-0.9-2.9-1.9-5.9-2.2-6.6c-0.9-2.4-4.5-3.8-6.8-2.6c-1.2,0.7-3-1.7-4.2-5.7c-0.8-2.6-1.1-4.4-1.1-8.6c0-2.9,0.1-5.8,0.3-6.4c0.3-0.9,1.4-1.7,4.6-3.4c11.1-5.8,22-15.6,27.5-25.1c1.5-2.7,3.3-6.4,4.3-9.4c0.3-0.7,1-0.2,4.6,3.1C112.9,64.4,116.4,67.3,118.1,68.8z"/><path fill="#000000" d="M100.1,100c-1.7,1.8-2,3.5-0.9,5.8c1.1,2,2.5,2.3,9.4,2.3c5.6,0,6.5-0.1,7.5-0.9c2.8-2.2,2.6-6.1-0.3-7.9c-1.2-0.7-2.3-0.9-7.8-0.9h-6.4L100.1,100z"/><path fill="#000000" d="M140.2,99.3c-1.7,1-2.7,3.5-2.2,5.3c0.1,0.6,0.9,1.7,1.7,2.3c1.3,1.1,1.6,1.2,7.7,1.2c7,0,8.2-0.3,9.3-2.3c1.3-2.1,1-4-0.8-5.8l-1.6-1.6H148C142.5,98.4,141.4,98.6,140.2,99.3z"/><path fill="#000000" d="M64.2,169.4c-7.9,2.8-16,5.8-18,6.8c-6.4,3.1-11.5,6.8-17.2,12.5c-7.6,7.5-12.2,15-15.4,24.4c-2.5,7.7-3.1,10.9-3.4,20.6l-0.3,8.8l1.7,1.7l1.6,1.6H128h114.7l1.6-1.6l1.7-1.7l-0.3-8.8c-0.2-7.1-0.5-9.8-1.4-13.7c-3.1-12.9-8.3-22.3-17.5-31.5c-5.6-5.6-10.9-9.3-17.5-12.4c-5.1-2.4-31.9-11.7-33.6-11.7c-0.9,0-2.3,1-5.5,4c-9.9,9.3-18.3,14.1-29.6,17c-4.4,1.2-5.9,1.3-12.2,1.3c-10.2,0-16.3-1.4-25.6-6c-5.8-2.9-11.1-6.7-17.1-12.3c-3.6-3.4-4.5-4-5.8-4C79.2,164.4,72.1,166.6,64.2,169.4z"/></g></g></g>
</svg>