<?xml version="1.0" encoding="utf-8"?>
<!-- Svg Vector Icons : http://www.onlinewebfonts.com/icon -->
<!DOCTYPE svg PUBLIC "-//W3C//DTD SVG 1.1//EN" "http://www.w3.org/Graphics/SVG/1.1/DTD/svg11.dtd">
<svg version="1.1" xmlns="http://www.w3.org/2000/svg" xmlns:xlink="http://www.w3.org/1999/xlink" x="0px" y="0px" viewBox="0 0 256 256" enable-background="new 0 0 256 256" xml:space="preserve">
<metadata> Svg Vector Icons : http://www.onlinewebfonts.com/icon </metadata>
<g><g><g><path fill="#000000" d="M119.5,10.6C88.9,14.7,65,37.9,60.1,68.3c-0.9,5.2-0.9,14.9,0,20c0.6,3.3,0.6,4.4,0,6.9c-0.8,4-0.8,12.1,0.1,16.5c0.9,4.4,3.2,9.5,5.5,12.1c1.7,1.9,5.6,4.1,7.1,4.1c0.5,0,1,0.9,1.6,2.6c4.7,15.3,15.2,30,27.3,38.1c18.4,12.2,39.3,11,57.2-3.3c9.8-7.8,18.7-21.5,22.8-34.8c0.6-1.7,1.1-2.6,1.5-2.6c1.6,0,5.4-2.3,7.1-4.1c2.3-2.6,4.7-7.6,5.5-12.1c0.9-4.4,0.9-12.5,0.1-16.5c-0.6-2.6-0.6-3.6,0-7.1c0.9-5.2,0.6-17.7-0.6-22.8c-1.7-7.5-5.6-17.3-9.3-23.2c-10-15.7-26.2-26.8-44.5-30.7C136.2,10.3,124.6,9.9,119.5,10.6z M126.6,65.4c10.1,6.2,24.5,11.2,36.6,12.8c4.2,0.6,4.4,0.6,4.7,1.8c1.8,8.4,4.3,15.5,6.2,17.2l1.5,1.3l4.7-0.3c2.5-0.1,5-0.4,5.4-0.5c0.6-0.2,0.8,0.2,1.1,1.9c0.7,5.1-0.8,13.6-3,16.7c-1,1.4-1.1,1.4-3.7,1.2c-2.5-0.3-2.8-0.2-4.1,1c-1.1,1-1.7,2.3-2.6,5.7c-4.6,16.6-15.1,31.3-27.2,38c-10,5.6-21.7,6.4-32.1,2c-13.4-5.6-24.9-19.7-30.5-37.3c-0.9-2.9-1.9-5.9-2.2-6.6c-0.9-2.4-4.5-3.8-6.8-2.6c-1.2,0.7-3-1.7-4.2-5.7c-0.8-2.6-1.1-4.4-1.1-8.7c0-2.9,0.1-5.5,0.3-5.7c0.1-0.2,2.6,0,5.4,0.2c4.7,0.6,5.2,0.5,6.4-0.2c2.4-1.6,2.5-1.8,2.2-8.7c-0.3-6.4,0.4-16.7,1.2-18.8c0.4-1,0.7-1.1,5-1.4c6.7-0.4,11.3-1.5,16.1-3.8c3.4-1.7,4.7-2.6,6.9-5l2.7-2.9l4,3.1C121.4,61.9,124.7,64.2,126.6,65.4z"/><path fill="#000000" d="M100.1,100c-1.7,1.8-2,3.5-0.9,5.8c1.1,2,2.5,2.3,9.4,2.3c5.6,0,6.5-0.1,7.5-0.9c2.8-2.2,2.6-6.1-0.3-7.9c-1.2-0.7-2.3-0.9-7.8-0.9h-6.4L100.1,100z"/><path fill="#000000" d="M140.2,99.3c-1.7,1-2.7,3.5-2.2,5.3c0.1,0.6,0.9,1.7,1.7,2.3c1.3,1.1,1.6,1.2,7.7,1.2c7,0,8.2-0.3,9.3-2.3c1.3-2.1,1-4-0.8-5.8l-1.6-1.6H148C142.5,98.4,141.4,98.6,140.2,99.3z"/><path fill="#000000" d="M64.2,169.4c-8.3,2.9-16.4,6.1-19.3,7.5c-14.5,7.3-26.2,20.7-31.3,36.1c-2.5,7.7-3.1,10.9-3.4,20.6l-0.3,8.8l1.7,1.7l1.6,1.6H128h114.7l1.6-1.6l1.7-1.7l-0.3-8.8c-0.2-7.1-0.5-9.8-1.4-13.7c-3.1-12.9-8.3-22.3-17.5-31.5c-5.6-5.6-10.9-9.3-17.5-12.4c-5.1-2.4-31.9-11.7-33.6-11.7c-0.9,0-2.3,1-5.5,4c-9.9,9.3-18.3,14.1-29.6,17c-4.4,1.2-5.9,1.3-12.2,1.3c-10.2,0-16.3-1.4-25.6-6c-5.8-2.9-11.1-6.7-17.1-12.3c-3.6-3.4-4.5-4-5.8-4C79.2,164.3,72.1,166.6,64.2,169.4z"/></g></g></g>
</svg>